#!OML:ASF H:\Terrain\Walking\May29\JustinRory\Justin.ASF
:FULLY-SPECIFIED
:DEGREES
143
root 12.1546 10.3565 8.25888 -23.0617 -57.8757 -4.07866
lowerback 39.8682 2.72661 -1.78055
upperback 15.651 1.37382 1.71954
thorax -1.9986 -0.135892 2.27166
lowerneck 3.01285 -13.1111 -15.4969
upperneck 20.669 -22.1782 19.172
head 10.02 -10.6896 6.96074
rclavicle -3.78685e-014 4.11484e-014
rhumerus -3.43043 -5.91474 -100.287
rradius 91.0561
rwrist -2.05254
rhand -15.0468 21.411
rfingers 7.12502
rthumb 11.1197 -8.27436
lclavicle -3.78685e-014 4.11484e-014
lhumerus -38.9761 4.89973 78.7918
lradius 61.5786
lwrist 16.2237
lhand -4.00519 40.2378
lfingers 7.12502
lthumb 21.749 69.036
rfemur -61.9616 -6.65033 15.0262
rtibia 91.0797
rfoot -1.08026 15.944
rtoes -7.21776
lfemur -55.204 21.3606 12.833
ltibia 109.04
lfoot -6.31991 -5.01105
ltoes -14.1126
144
root 12.1778 10.352 8.20781 -23.7549 -58.1422 -3.64277
lowerback 39.5433 2.92123 -2.42349
upperback 15.7171 1.38668 1.75522
thorax -1.84247 -0.169438 2.63868
lowerneck 2.66498 -13.2333 -15.4076
upperneck 21.2202 -22.3471 18.738
head 10.2507 -10.75 6.74114
rclavicle 5.11871e-014 -7.15625e-015
rhumerus -3.46305 -7.58691 -101.201
rradius 89.8691
rwrist -0.786825
rhand -14.5403 21.0721
rfingers 7.12502
rthumb 11.6081 -8.58638
lclavicle 5.11871e-014 -7.15625e-015
lhumerus -39.9734 4.1485 80.4283
lradius 61.3822
lwrist 16.0215
lhand -3.99633 40.1056
lfingers 7.12502
lthumb 21.7575 68.9028
rfemur -61.8222 -6.55648 15.0706
rtibia 90.9035
rfoot -0.914928 15.7324
rtoes -6.89281
lfemur -55.2948 21.0965 12.0516
ltibia 108.117
lfoot -7.32344 -7.17455
ltoes -18.1918
145
root 12.2053 10.3571 8.15321 -24.3729 -58.4835 -3.13652
lowerback 39.043 3.1622 -2.95188
upperback 15.8696 1.50078 1.70086
thorax -1.53632 -0.146571 2.81934
lowerneck 2.46758 -13.4161 -15.0128
upperneck 21.2474 -22.5788 18.5782
head 10.2734 -10.8256 6.56668
rclavicle 4.09496e-014 -3.18055e-014
rhumerus -3.18792 -9.17416 -101.816
rradius 88.5768
rwrist -0.0977956
rhand -14.2474 20.479
rfingers 7.12502
rthumb 11.8906 -9.16335
lclavicle 4.09496e-014 -3.18055e-014
lhumerus -40.4705 3.5441 81.9083
lradius 61.2606
lwrist 16.0324
lhand -3.62601 39.7395
lfingers 7.12502
lthumb 22.1131 68.4949
rfemur -61.8864 -6.38643 15.2034
rtibia 90.7082
rfoot -1.16943 14.7847
rtoes -9.90336
lfemur -55.306 20.8729 11.1278
ltibia 106.881
lfoot -8.18554 -9.56236
ltoes -19.5063
146
root 12.2209 10.3602 8.10754 -24.7916 -58.6279 -2.8354
lowerback 38.5562 3.2395 -3.20449
upperback 15.9497 1.52227 1.54366
thorax -1.29762 -0.142873 2.78223
lowerneck 2.76619 -13.5104 -14.6758
upperneck 20.781 -22.7116 18.7613
head 10.0569 -10.8909 6.57575
rclavicle -5.1684e-015 5.02925e-014
rhumerus -2.83455 -10.7593 -102.402
rradius 86.9929
rwrist 0.516187
rhand -13.6226 20.2392
rfingers 7.12502
rthumb 12.493 -9.36741
lclavicle -5.1684e-015 5.02925e-014
lhumerus -41.0316 2.74216 83.2441
lradius 61.4406
lwrist 16.7529
lhand -4.23743 39.0922
lfingers 7.12502
lthumb 21.5259 67.916
rfemur -61.8338 -6.4732 15.3509
rtibia 90.6195
rfoot -1.66771 13.6854
rtoes -11.5699
lfemur -55.5232 20.4919 10.1226
ltibia 105.529
lfoot -8.14278 -12.334
ltoes -19.3652
147
root 12.226 10.3587 8.06628 -25.2839 -58.6795 -2.60428
lowerback 38.2183 3.32695 -3.75081
upperback 16.0114 1.45908 1.59565
thorax -1.13065 -0.211924 3.14425
lowerneck 2.92628 -13.4945 -14.9532
upperneck 20.6104 -22.7256 18.9523
head 10.0305 -10.9258 6.69211
rclavicle -3.72721e-014 5.4467e-014
rhumerus -2.67821 -11.8554 -102.759
rradius 85.3294
rwrist 1.44427
rhand -12.8391 20.4553
rfingers 7.12502
rthumb 13.2483 -9.10365
lclavicle -3.72721e-014 5.4467e-014
lhumerus -41.8186 2.27768 84.7673
lradius 61.9494
lwrist 17.7155
lhand -5.13672 38.5798
lfingers 7.12502
lthumb 20.662 67.5
rfemur -61.5314 -6.58859 15.3898
rtibia 90.6468
rfoot -2.15772 12.5442
rtoes -8.41839
lfemur -55.5806 20.1228 9.14652
ltibia 104.006
lfoot -9.86096 -15.6425
ltoes -28.4342
148
root 12.2353 10.3341 8.02274 -26.0621 -59.3241 -1.76144
lowerback 37.5321 3.77589 -4.6794
upperback 16.1499 1.74322 1.68853
thorax -0.952759 -0.131737 3.64006
lowerneck 2.83222 -13.5916 -15.1452
upperneck 20.7374 -22.8824 18.8993
head 10.1445 -11.0061 6.66599
rclavicle -1.0476e-013 3.93594e-014
rhumerus -2.4401 -12.7638 -102.817
rradius 83.5864
rwrist 2.26237
rhand -12.2805 20.6946
rfingers 7.12502
rthumb 13.7867 -8.82855
lclavicle -1.0476e-013 3.93594e-014
lhumerus -42.5554 1.87266 86.3896
lradius 62.6042
lwrist 18.6499
lhand -4.93379 38.5667
lfingers 7.12502
lthumb 20.857 67.4656
rfemur -61.86 -6.10318 15.4786
rtibia 90.7939
rfoot -2.58047 11.0483
rtoes -4.19172
lfemur -55.5067 20.611 8.16727
ltibia 102.372
lfoot -10.3552 -18.9133
ltoes -30.5338
149
root 12.2503 10.2999 7.97493 -27.1194 -60.0554 -0.733454
lowerback 37.4782 4.28832 -5.41577
upperback 15.9245 2.12396 1.55856
thorax -1.06858 0.0304462 3.75253
lowerneck 3.00562 -13.8244 -14.8962
upperneck 20.6951 -23.2701 18.9435
head 10.1523 -11.1843 6.58921
rclavicle -5.14852e-014 5.18828e-014
rhumerus -2.19472 -13.9618 -103.142
rradius 81.7456
rwrist 3.14604
rhand -11.9303 21.439
rfingers 7.12502
rthumb 14.1241 -8.06097
lclavicle -5.14852e-014 5.18828e-014
lhumerus -43.2092 1.07136 87.691
lradius 63.2066
lwrist 19.4996
lhand -4.26995 38.715
lfingers 7.12502
lthumb 21.4947 67.5423
rfemur -62.1776 -5.66277 15.6674
rtibia 91.0251
rfoot -3.45691 9.06054
rtoes -2.61404
lfemur -55.1551 21.0753 7.18569
ltibia 100.549
lfoot -9.69572 -21.9716
ltoes -27.9963
150
root 12.2643 10.274 7.93089 -27.5981 -60.0751 -0.498892
lowerback 37.4677 4.35848 -5.70438
upperback 15.8588 2.11092 1.436
thorax -1.13415 0.0186523 3.77562
lowerneck 3.2981 -14.0213 -14.6997
upperneck 20.3506 -23.5924 19.1804
head 10.0489 -11.3434 6.60642
rclavicle 8.89561e-014 -6.71892e-014
rhumerus -1.89824 -15.0942 -103.534
rradius 79.8692
rwrist 4.49734
rhand -11.6133 22.6674
rfingers 7.12502
rthumb 14.4296 -6.81096
lclavicle 8.89561e-014 -6.71892e-014
lhumerus -43.6406 0.262508 88.9413
lradius 63.6464
lwrist 20.0224
lhand -4.12714 38.6387
lfingers 7.12502
lthumb 21.6319 67.4504
rfemur -62.148 -5.93264 15.847
rtibia 91.3113
rfoot -5.03427 6.68971
rtoes -4.04434
lfemur -55.1118 20.6215 6.09527
ltibia 98.5937
lfoot -9.3364 -24.6656
ltoes -24.8721
151
root 12.276 10.2705 7.89527 -27.5345 -59.7034 -0.786549
lowerback 37.1214 4.08564 -5.48463
upperback 16.0128 1.87694 1.26821
thorax -0.973757 -0.078421 3.57774
lowerneck 3.31923 -14.2623 -14.6221
upperneck 20.1813 -23.9708 19.3716
head 10.0815 -11.5133 6.5924
rclavicle -9.54166e-015 -1.59028e-014
rhumerus -1.53261 -16.0435 -103.909
rradius 78.0668
rwrist 5.64189
rhand -11.5707 24.095
rfingers 7.12502
rthumb 14.4706 -5.38039
lclavicle -9.54166e-015 -1.59028e-014
lhumerus -43.9963 -0.927487 90.2155
lradius 64.23
lwrist 20.565
lhand -4.45449 38.8524
lfingers 7.12502
lthumb 21.3175 67.6999
rfemur -62.0176 -6.54402 15.9978
rtibia 91.5655
rfoot -6.55444 4.04503
rtoes -4.40622
lfemur -55.4142 19.7424 4.90992
ltibia 96.6119
lfoot -9.03658 -26.523
ltoes -21.0486
152
root 12.292 10.2654 7.86703 -27.7744 -59.7222 -0.622563
lowerback 36.8732 3.96488 -5.29369
upperback 15.9611 1.80931 1.04101
thorax -0.932774 -0.0820668 3.26749
lowerneck 3.40325 -14.4434 -14.9844
upperneck 20.1048 -24.3662 19.8386
head 10.2443 -11.7099 6.7419
rclavicle 5.00937e-014 -2.78299e-014
rhumerus -1.27173 -16.7707 -104.176
rradius 76.272
rwrist 6.37272
rhand -11.8301 25.4372
rfingers 7.12502
rthumb 14.2207 -4.05595
lclavicle 5.00937e-014 -2.78299e-014
lhumerus -44.4645 -2.08002 91.3945
lradius 65.0025
lwrist 21.265
lhand -4.92894 39.9369
lfingers 7.12502
lthumb 20.8617 68.8352
rfemur -62.0734 -6.89424 16.1079
rtibia 91.8278
rfoot -7.69069 1.39626
rtoes 0.461021
lfemur -55.6015 19.305 3.82618
ltibia 94.8505
lfoot -8.74227 -27.5157
ltoes -20.4547
153
root 12.3063 10.2473 7.83287 -28.0435 -59.9 -0.290209
lowerback 36.7192 4.0406 -5.32285
upperback 15.7479 1.92317 0.963552
thorax -1.12194 -0.00184534 3.16622
lowerneck 3.83897 -14.5408 -15.4855
upperneck 19.7002 -24.619 20.4046
head 10.2297 -11.88 6.99884
rclavicle -2.127e-014 2.18663e-014
rhumerus -1.06887 -17.4854 -104.113
rradius 74.4008
rwrist 7.1663
rhand -12.0301 26.7241
rfingers 7.12502
rthumb 14.028 -2.78252
lclavicle -2.127e-014 2.18663e-014
lhumerus -44.9121 -3.00224 92.6389
lradius 65.5764
lwrist 21.957
lhand -6.06358 41.3117
lfingers 7.12502
lthumb 19.7712 70.3262
rfemur -62.2923 -6.98601 16.1273
rtibia 92.1408
rfoot -9.23734 -1.04322
rtoes 5.70257
lfemur -55.7799 18.9243 3.13
ltibia 93.5463
lfoot -7.09149 -27.4786
ltoes -17.702
154
root 12.3181 10.2255 7.80033 -27.9651 -59.81 -0.303904
lowerback 36.5148 3.96135 -5.16217
upperback 15.5959 1.91051 0.854367
thorax -1.21371 0.023957 2.97641
lowerneck 4.15339 -14.7109 -15.5995
upperneck 19.3876 -24.8734 20.5697
head 10.1565 -12.0314 7.04629
rclavicle -2.24627e-014 2.8625e-014
rhumerus -0.712564 -18.1235 -104.188
rradius 72.4628
rwrist 8.15436
rhand -12.2897 28.0072
rfingers 7.12502
rthumb 13.7778 -1.51662
lclavicle -2.24627e-014 2.8625e-014
lhumerus -45.1023 -3.93332 93.6451
lradius 65.9426
lwrist 22.5407
lhand -6.91428 42.0144
lfingers 7.12502
lthumb 18.9533 71.1109
rfemur -62.5489 -7.31505 16.0794
rtibia 92.4831
rfoot -10.7906 -3.088
rtoes 8.42469
lfemur -56.2431 18.1589 2.87691
ltibia 92.9078
lfoot -5.30175 -26.7457
ltoes -14.8252
155
root 12.3367 10.2024 7.7817 -27.9041 -59.6178 -0.410625
lowerback 36.2867 3.73636 -4.82727
upperback 15.5668 1.76024 0.658481
thorax -1.1479 -0.0161301 2.65132
lowerneck 4.18271 -14.932 -15.5484
upperneck 19.3074 -25.1923 20.5882
head 10.1892 -12.1808 6.98315
rclavicle 8.84592e-014 3.97569e-016
rhumerus -0.20563 -18.4192 -104.369
rradius 70.4608
rwrist 9.23108
rhand -12.9194 28.6767
rfingers 7.12502
rthumb 13.1709 -0.887282
lclavicle 8.84592e-014 3.97569e-016
lhumerus -45.074 -4.68385 94.3245
lradius 66.2271
lwrist 22.9936
lhand -7.11422 42.2277
lfingers 7.12502
lthumb 18.761 71.343
rfemur -62.7588 -8.00427 15.9522
rtibia 92.8025
rfoot -11.2783 -4.62157
rtoes 13.3817
lfemur -56.7401 17.1869 2.84157
ltibia 92.76
lfoot -4.60975 -24.5449
ltoes -16.9651
156
root 12.3613 10.1954 7.7628 -27.9389 -59.5233 -0.396314
lowerback 36.2161 3.58086 -4.54566
upperback 15.3587 1.68115 0.538325
thorax -1.33816 -0.0143376 2.40594
lowerneck 4.4484 -15.0805 -15.7108
upperneck 19.1333 -25.4457 20.7303
head 10.18 -12.3292 7.02708
rclavicle 6.71892e-014 -4.45278e-014
rhumerus 0.124734 -18.5988 -104.321
rradius 68.3932
rwrist 10.291
rhand -13.5534 29.4795
rfingers 7.12502
rthumb 12.5597 -0.122993
lclavicle 6.71892e-014 -4.45278e-014
lhumerus -45.2988 -5.30005 94.9989
lradius 66.4365
lwrist 23.3355
lhand -8.43571 43.037
lfingers 7.12502
lthumb 17.4896 72.2703
rfemur -62.9198 -8.55577 15.725
rtibia 92.9992
rfoot -10.9545 -5.63059
rtoes 17.4479
lfemur -56.9413 16.1712 2.92784
ltibia 92.589
lfoot -3.54928 -22.208
ltoes -16.7546
